<svg width="1080" height="1080" viewBox="0 0 1080 1080" fill="none" xmlns="http://www.w3.org/2000/svg">
<path d="M356.889 435.922V616H319.959L248.297 512.068H247.154V616H203.629V435.922H241.087L311.957 539.678H313.452V435.922H356.889Z" fill="black"/>
<path d="M356.738 471.269V435.922H508.943V471.269H454.339V616H411.429V471.269H356.738Z" fill="black"/>
<path d="M508.629 616V435.922H634.191V471.269H552.154V508.199H627.773V543.635H552.154V580.653H634.191V616H508.629Z" fill="black"/>
<path d="M792.089 501.165H748.124C747.538 496.651 746.336 492.577 744.519 488.943C742.702 485.308 740.299 482.202 737.309 479.622C734.319 477.043 730.773 475.079 726.67 473.731C722.625 472.324 718.141 471.621 713.217 471.621C704.482 471.621 696.95 473.76 690.619 478.04C684.347 482.319 679.51 488.503 676.111 496.593C672.769 504.682 671.099 514.471 671.099 525.961C671.099 537.919 672.799 547.943 676.198 556.033C679.657 564.063 684.493 570.13 690.707 574.234C696.979 578.279 704.394 580.301 712.953 580.301C717.76 580.301 722.127 579.685 726.054 578.454C730.04 577.223 733.528 575.435 736.518 573.091C739.566 570.687 742.057 567.786 743.992 564.386C745.985 560.927 747.362 557.029 748.124 552.691L792.089 552.955C791.327 560.927 789.011 568.782 785.142 576.52C781.332 584.258 776.086 591.321 769.403 597.711C762.72 604.042 754.572 609.083 744.959 612.835C735.404 616.586 724.442 618.462 712.073 618.462C695.777 618.462 681.181 614.886 668.285 607.735C655.447 600.525 645.306 590.032 637.861 576.256C630.417 562.481 626.695 545.716 626.695 525.961C626.695 506.148 630.475 489.353 638.037 475.578C645.599 461.802 655.828 451.339 668.725 444.187C681.621 437.036 696.07 433.46 712.073 433.46C722.977 433.46 733.059 434.984 742.321 438.032C751.583 441.022 759.731 445.418 766.765 451.221C773.799 456.966 779.515 464.03 783.911 472.412C788.308 480.795 791.034 490.379 792.089 501.165Z" fill="black"/>
<path d="M817.581 616H770.803L831.562 435.922H889.507L950.266 616H903.488L861.194 481.293H859.787L817.581 616ZM811.338 545.129H909.115V578.191H811.338V545.129Z" fill="black"/>
<path d="M160 633C171.046 633 180 641.954 180 653V657C180 668.046 171.046 677 160 677H156C144.954 677 136 668.046 136 657V653C136 641.954 144.954 633 156 633H160ZM180.153 436V616.078H136.629V436H180.153Z" fill="url(#paint0_linear_791_814)"/>
<path d="M201.813 642.727V666H200.392V642.727H201.813ZM230.813 642.727V666H229.426L214.585 645.307H214.449V666H213.029V642.727H214.426L229.267 663.443H229.404V642.727H230.813ZM240.463 644.045V642.727H256.77V644.045H249.327V666H247.906V644.045H240.463ZM266.426 666V642.727H279.381V644.045H267.847V653.693H278.688V655.011H267.847V664.682H279.653V666H266.426ZM289.75 666V642.727H291.17V664.682H302.534V666H289.75ZM312.23 666V642.727H313.65V664.682H325.014V666H312.23ZM334.71 666V642.727H347.664V644.045H336.13V653.693H346.971V655.011H336.13V664.682H347.937V666H334.71ZM374.34 650C374.166 649.212 373.871 648.451 373.454 647.716C373.037 646.973 372.503 646.307 371.852 645.716C371.208 645.117 370.45 644.644 369.579 644.295C368.715 643.947 367.746 643.773 366.67 643.773C365.026 643.773 363.568 644.205 362.295 645.068C361.03 645.924 360.037 647.148 359.318 648.739C358.606 650.322 358.25 652.197 358.25 654.364C358.25 656.508 358.606 658.375 359.318 659.966C360.03 661.557 361.026 662.788 362.306 663.659C363.594 664.523 365.09 664.955 366.795 664.955C368.318 664.955 369.666 664.602 370.84 663.898C372.022 663.193 372.943 662.186 373.602 660.875C374.261 659.564 374.583 657.996 374.568 656.17L375.068 656.409H367.159V655.091H375.954V656.409C375.954 658.462 375.56 660.231 374.772 661.716C373.992 663.193 372.909 664.33 371.522 665.125C370.143 665.92 368.568 666.318 366.795 666.318C364.795 666.318 363.049 665.822 361.556 664.83C360.064 663.837 358.905 662.447 358.079 660.659C357.261 658.864 356.852 656.765 356.852 654.364C356.852 652.561 357.087 650.924 357.556 649.455C358.026 647.985 358.697 646.727 359.568 645.682C360.439 644.629 361.477 643.822 362.681 643.261C363.886 642.693 365.215 642.409 366.67 642.409C367.988 642.409 369.174 642.629 370.227 643.068C371.28 643.5 372.189 644.083 372.954 644.818C373.727 645.545 374.352 646.36 374.829 647.261C375.306 648.155 375.628 649.068 375.795 650H374.34ZM386.201 666V642.727H399.156V644.045H387.622V653.693H398.462V655.011H387.622V664.682H399.428V666H386.201ZM427.309 642.727V666H425.923L411.082 645.307H410.945V666H409.525V642.727H410.923L425.764 663.443H425.9V642.727H427.309ZM456.232 650H454.778C454.626 649.212 454.342 648.451 453.925 647.716C453.509 646.973 452.971 646.307 452.312 645.716C451.66 645.117 450.903 644.644 450.039 644.295C449.175 643.947 448.221 643.773 447.175 643.773C445.645 643.773 444.236 644.182 442.948 645C441.668 645.811 440.641 647.004 439.869 648.58C439.103 650.155 438.721 652.083 438.721 654.364C438.721 656.659 439.103 658.595 439.869 660.17C440.641 661.746 441.668 662.939 442.948 663.75C444.236 664.553 445.645 664.955 447.175 664.955C448.221 664.955 449.175 664.784 450.039 664.443C450.903 664.095 451.66 663.625 452.312 663.034C452.971 662.436 453.509 661.765 453.925 661.023C454.342 660.28 454.626 659.515 454.778 658.727H456.232C456.065 659.667 455.744 660.587 455.266 661.489C454.797 662.39 454.175 663.208 453.403 663.943C452.637 664.67 451.732 665.25 450.687 665.682C449.649 666.106 448.478 666.318 447.175 666.318C445.236 666.318 443.528 665.826 442.05 664.841C440.573 663.848 439.414 662.455 438.573 660.659C437.74 658.864 437.323 656.765 437.323 654.364C437.323 651.962 437.74 649.864 438.573 648.068C439.414 646.273 440.573 644.883 442.05 643.898C443.528 642.905 445.236 642.409 447.175 642.409C448.478 642.409 449.649 642.625 450.687 643.057C451.732 643.481 452.637 644.057 453.403 644.784C454.175 645.504 454.797 646.314 455.266 647.216C455.744 648.117 456.065 649.045 456.232 650ZM466.172 666V642.727H479.127V644.045H467.593V653.693H478.434V655.011H467.593V664.682H479.4V666H466.172ZM502.976 666V642.727H515.931V644.045H504.397V653.693H515.237V655.011H504.397V664.682H516.203V666H502.976ZM532.754 666H526.3V642.727H533.254C535.436 642.727 537.304 643.189 538.857 644.114C540.41 645.038 541.599 646.364 542.425 648.091C543.258 649.811 543.671 651.875 543.664 654.284C543.656 656.746 543.224 658.852 542.368 660.602C541.512 662.345 540.273 663.682 538.652 664.614C537.031 665.538 535.065 666 532.754 666ZM527.72 664.682H532.698C534.773 664.682 536.523 664.269 537.948 663.443C539.372 662.61 540.448 661.417 541.175 659.864C541.91 658.311 542.273 656.451 542.266 654.284C542.266 652.148 541.914 650.318 541.209 648.795C540.504 647.265 539.478 646.091 538.129 645.273C536.789 644.455 535.145 644.045 533.198 644.045H527.72V664.682ZM569.448 642.727H570.868V658.136C570.868 659.72 570.501 661.133 569.766 662.375C569.031 663.61 568.016 664.587 566.72 665.307C565.432 666.019 563.951 666.375 562.277 666.375C560.61 666.375 559.129 666.019 557.834 665.307C556.538 664.587 555.519 663.606 554.777 662.364C554.042 661.121 553.679 659.712 553.686 658.136V642.727H555.107V658.057C555.107 659.398 555.41 660.591 556.016 661.636C556.629 662.682 557.474 663.508 558.55 664.114C559.626 664.712 560.868 665.011 562.277 665.011C563.686 665.011 564.929 664.712 566.004 664.114C567.08 663.508 567.921 662.682 568.527 661.636C569.141 660.591 569.448 659.398 569.448 658.057V642.727ZM599.8 650H598.345C598.194 649.212 597.909 648.451 597.493 647.716C597.076 646.973 596.538 646.307 595.879 645.716C595.228 645.117 594.47 644.644 593.606 644.295C592.743 643.947 591.788 643.773 590.743 643.773C589.213 643.773 587.803 644.182 586.516 645C585.235 645.811 584.209 647.004 583.436 648.58C582.671 650.155 582.288 652.083 582.288 654.364C582.288 656.659 582.671 658.595 583.436 660.17C584.209 661.746 585.235 662.939 586.516 663.75C587.803 664.553 589.213 664.955 590.743 664.955C591.788 664.955 592.743 664.784 593.606 664.443C594.47 664.095 595.228 663.625 595.879 663.034C596.538 662.436 597.076 661.765 597.493 661.023C597.909 660.28 598.194 659.515 598.345 658.727H599.8C599.633 659.667 599.311 660.587 598.834 661.489C598.364 662.39 597.743 663.208 596.97 663.943C596.205 664.67 595.3 665.25 594.254 665.682C593.216 666.106 592.046 666.318 590.743 666.318C588.803 666.318 587.095 665.826 585.618 664.841C584.141 663.848 582.981 662.455 582.141 660.659C581.307 658.864 580.891 656.765 580.891 654.364C580.891 651.962 581.307 649.864 582.141 648.068C582.981 646.273 584.141 644.883 585.618 643.898C587.095 642.905 588.803 642.409 590.743 642.409C592.046 642.409 593.216 642.625 594.254 643.057C595.3 643.481 596.205 644.057 596.97 644.784C597.743 645.504 598.364 646.314 598.834 647.216C599.311 648.117 599.633 649.045 599.8 650ZM608.842 666H607.342L615.74 642.727H617.376L625.774 666H624.274L616.615 644.557H616.501L608.842 666ZM610.967 657.239H622.149V658.557H610.967V657.239ZM630.331 644.045V642.727H646.638V644.045H639.194V666H637.774V644.045H630.331ZM657.714 642.727V666H656.294V642.727H657.714ZM687.441 654.364C687.441 656.765 687.025 658.864 686.191 660.659C685.358 662.447 684.199 663.837 682.714 664.83C681.237 665.822 679.532 666.318 677.6 666.318C675.661 666.318 673.949 665.822 672.464 664.83C670.987 663.83 669.831 662.436 668.998 660.648C668.165 658.852 667.748 656.758 667.748 654.364C667.748 651.962 668.165 649.867 668.998 648.08C669.839 646.292 670.998 644.902 672.475 643.909C673.953 642.909 675.661 642.409 677.6 642.409C679.532 642.409 681.237 642.905 682.714 643.898C684.199 644.89 685.358 646.284 686.191 648.08C687.025 649.867 687.441 651.962 687.441 654.364ZM686.055 654.364C686.055 652.205 685.691 650.333 684.964 648.75C684.244 647.167 683.248 645.943 681.975 645.08C680.703 644.208 679.244 643.773 677.6 643.773C675.956 643.773 674.498 644.205 673.225 645.068C671.953 645.924 670.953 647.148 670.225 648.739C669.506 650.322 669.146 652.197 669.146 654.364C669.146 656.508 669.502 658.375 670.214 659.966C670.934 661.549 671.93 662.777 673.203 663.648C674.475 664.519 675.941 664.955 677.6 664.955C679.244 664.955 680.703 664.523 681.975 663.659C683.248 662.788 684.244 661.561 684.964 659.977C685.691 658.394 686.055 656.523 686.055 654.364ZM715.256 642.727V666H713.87L699.029 645.307H698.893V666H697.472V642.727H698.87L713.711 663.443H713.847V642.727H715.256ZM739.035 666H737.535L745.932 642.727H747.569L755.966 666H754.466L746.807 644.557H746.694L739.035 666ZM741.16 657.239H752.341V658.557H741.16V657.239ZM764.787 642.727H766.333L775.299 663.955H775.458L784.424 642.727H785.969V666H784.606V646.102H784.469L776.049 666H774.708L766.287 646.102H766.151V666H764.787V642.727ZM797.174 666V642.727H804.73C806.14 642.727 807.329 642.977 808.299 643.477C809.268 643.977 810.003 644.678 810.503 645.58C811.011 646.481 811.265 647.53 811.265 648.727C811.265 649.667 811.113 650.5 810.81 651.227C810.507 651.955 810.083 652.557 809.537 653.034C808.999 653.504 808.367 653.83 807.64 654.011V654.148C808.443 654.208 809.189 654.489 809.878 654.989C810.568 655.481 811.121 656.152 811.537 657C811.962 657.848 812.174 658.837 812.174 659.966C812.174 661.155 811.916 662.205 811.401 663.114C810.893 664.015 810.132 664.723 809.117 665.239C808.102 665.746 806.844 666 805.344 666H797.174ZM798.594 664.682H805.344C807.094 664.682 808.439 664.242 809.378 663.364C810.325 662.485 810.799 661.352 810.799 659.966C810.799 658.989 810.568 658.114 810.105 657.341C809.651 656.568 809.018 655.958 808.208 655.511C807.397 655.057 806.458 654.83 805.39 654.83H798.594V664.682ZM798.594 653.534H805.219C806.212 653.534 807.052 653.318 807.742 652.886C808.439 652.455 808.969 651.875 809.333 651.148C809.704 650.42 809.89 649.614 809.89 648.727C809.89 647.288 809.443 646.148 808.549 645.307C807.655 644.466 806.382 644.045 804.73 644.045H798.594V653.534ZM823.668 642.727V666H822.247V642.727H823.668ZM833.338 644.045V642.727H849.645V644.045H842.202V666H840.781V644.045H833.338ZM860.722 642.727V666H859.301V642.727H860.722ZM890.449 654.364C890.449 656.765 890.032 658.864 889.199 660.659C888.365 662.447 887.206 663.837 885.721 664.83C884.244 665.822 882.54 666.318 880.608 666.318C878.668 666.318 876.956 665.822 875.471 664.83C873.994 663.83 872.839 662.436 872.006 660.648C871.172 658.852 870.756 656.758 870.756 654.364C870.756 651.962 871.172 649.867 872.006 648.08C872.846 646.292 874.006 644.902 875.483 643.909C876.96 642.909 878.668 642.409 880.608 642.409C882.54 642.409 884.244 642.905 885.721 643.898C887.206 644.89 888.365 646.284 889.199 648.08C890.032 649.867 890.449 651.962 890.449 654.364ZM889.062 654.364C889.062 652.205 888.699 650.333 887.971 648.75C887.252 647.167 886.256 645.943 884.983 645.08C883.71 644.208 882.252 643.773 880.608 643.773C878.964 643.773 877.506 644.205 876.233 645.068C874.96 645.924 873.96 647.148 873.233 648.739C872.513 650.322 872.153 652.197 872.153 654.364C872.153 656.508 872.509 658.375 873.221 659.966C873.941 661.549 874.937 662.777 876.21 663.648C877.483 664.519 878.949 664.955 880.608 664.955C882.252 664.955 883.71 664.523 884.983 663.659C886.256 662.788 887.252 661.561 887.971 659.977C888.699 658.394 889.062 656.523 889.062 654.364ZM918.264 642.727V666H916.878L902.037 645.307H901.9V666H900.48V642.727H901.878L916.719 663.443H916.855V642.727H918.264ZM942.005 648.545C941.884 647.098 941.293 645.928 940.233 645.034C939.18 644.14 937.816 643.693 936.142 643.693C935.013 643.693 934.009 643.902 933.13 644.318C932.252 644.735 931.562 645.303 931.062 646.023C930.562 646.742 930.312 647.568 930.312 648.5C930.312 649.098 930.426 649.64 930.653 650.125C930.888 650.602 931.217 651.03 931.642 651.409C932.066 651.78 932.57 652.106 933.153 652.386C933.736 652.667 934.38 652.913 935.085 653.125L937.63 653.875C938.502 654.14 939.305 654.447 940.039 654.795C940.782 655.144 941.426 655.561 941.971 656.045C942.524 656.523 942.952 657.083 943.255 657.727C943.566 658.371 943.721 659.114 943.721 659.955C943.721 661.182 943.403 662.28 942.767 663.25C942.138 664.22 941.24 664.985 940.074 665.545C938.914 666.098 937.547 666.375 935.971 666.375C934.471 666.375 933.164 666.121 932.051 665.614C930.945 665.106 930.07 664.402 929.426 663.5C928.782 662.591 928.418 661.545 928.335 660.364H929.789C929.865 661.326 930.172 662.159 930.71 662.864C931.255 663.561 931.979 664.098 932.88 664.477C933.782 664.856 934.812 665.045 935.971 665.045C937.221 665.045 938.324 664.833 939.278 664.409C940.233 663.977 940.979 663.379 941.517 662.614C942.055 661.848 942.324 660.958 942.324 659.943C942.324 659.125 942.13 658.424 941.744 657.841C941.358 657.258 940.786 656.754 940.028 656.33C939.278 655.905 938.346 655.527 937.233 655.193L934.517 654.375C932.699 653.822 931.308 653.068 930.346 652.114C929.392 651.159 928.914 649.97 928.914 648.545C928.914 647.348 929.233 646.288 929.869 645.364C930.505 644.432 931.369 643.701 932.46 643.17C933.558 642.64 934.797 642.375 936.176 642.375C937.562 642.375 938.786 642.644 939.846 643.182C940.907 643.712 941.748 644.443 942.369 645.375C942.99 646.299 943.335 647.356 943.403 648.545H942.005Z" fill="black"/>
<rect x="645" y="436" width="35" height="170" rx="11" transform="rotate(90 645 436)" fill="black"/>
<line x1="491" y1="639" x2="491" y2="670" stroke="#DA0000" stroke-width="6"/>
<line x1="728" y1="639" x2="728" y2="670" stroke="#DA0000" stroke-width="6"/>
<defs>
<linearGradient id="paint0_linear_791_814" x1="158.077" y1="436" x2="158" y2="677" gradientUnits="userSpaceOnUse">
<stop stop-color="#DA0000"/>
<stop offset="1" stop-color="#FF0000"/>
</linearGradient>
</defs>
</svg>
